<svg width="202" height="137" viewBox="0 0 202 137" fill="none" xmlns="http://www.w3.org/2000/svg">
<g clip-path="url(#clip0)">
<path d="M71.8076 59.5H86.8076C89.5676 59.5 91.5001 59.24 91.5001 62V57C91.5001 54.24 89.5676 52 86.8076 52H66.8076C61.8076 52 57.8501 57.3125 59.3076 64.5C59.3076 64.5 63.7851 87.9375 64.1001 89.395C64.9326 93.25 69.4101 97 74.2026 97H91.5976C94.3601 97 91.5001 92.26 91.5001 89.5V84.5C91.5001 87.26 89.5676 89.5 86.8076 89.5H76.8076C74.0476 89.5 72.2251 86.895 71.8076 84.5C71.3901 82.105 67.8476 66.1675 67.8476 66.1675C67.0151 61.375 69.0451 59.5 71.8076 59.5ZM136.338 59.5H121.338C118.578 59.5 114 59.24 114 62V57C114 54.24 118.578 52 121.338 52H141.338C146.338 52 150.298 57.3125 148.838 64.5C148.838 64.5 144.755 88.0475 144.41 89.5C143.525 93.25 139.305 97 134.41 97H116.545C113.785 97 114 92.26 114 89.5V84.5C114 87.26 118.578 89.5 121.338 89.5H131.338C134.098 89.5 135.923 86.895 136.338 84.5C136.753 82.105 140.298 66.1675 140.298 66.1675C141.128 61.375 139.1 59.5 136.338 59.5V59.5ZM111.08 102C111.08 84.605 104.308 102 104.308 102C104.308 102 96.8076 84.605 96.8076 102C96.8076 119.395 88.5801 127 88.5801 127H119.31C119.308 127 111.08 119.395 111.08 102Z" fill="#FFAC33"/>
<path d="M131.807 63.4425C131.807 80.38 114.882 108.922 104.307 108.922C93.73 108.922 76.8075 80.38 76.8075 63.4425C76.8075 50.455 79.3075 47.645 84.3075 47.645C87.7425 47.645 99.37 47.5775 104.307 47.5775L121.807 47.575C129.1 47.5725 131.807 49.285 131.807 63.4425V63.4425Z" fill="#FFCC4D"/>
<path d="M126.5 129.5C126.5 132.26 127.067 134.5 124.307 134.5H84.3075C81.545 134.5 81.5 132.26 81.5 129.5V127C81.5 124.24 84.41 122 87.015 122H121.807C124.412 122 126.5 124.24 126.5 127V129.5V129.5Z" fill="#C1694F"/>
<path d="M131.5 133.562C131.5 135.462 131.913 137 128.37 137H80.245C77.015 137 76.5 135.462 76.5 133.562V132.937C76.5 131.037 78.345 129.5 80.245 129.5H128.37C130.268 129.5 131.5 131.037 131.5 132.937V133.562V133.562Z" fill="#C1694F"/>
</g>
<path d="M19.3127 62.5816C14.8628 62.5816 11.267 66.1925 11.267 70.6274C11.267 72.9497 12.2708 75.0323 13.844 76.5006L26.0549 66.2374C24.6166 64.0499 22.1294 62.5816 19.3127 62.5816Z" fill="white"/>
<path d="M13.844 76.5156C15.2823 77.849 17.2001 78.688 19.3127 78.688C23.7626 78.688 27.3584 75.0772 27.3584 70.6423C27.3584 69.0242 26.864 67.5259 26.0549 66.2674L13.844 76.5156Z" fill="white"/>
<path d="M20.7809 51H17.8293V59.5851H20.7809V51Z" fill="white"/>
<path d="M20.7809 81.4149H17.8293V90H20.7809V81.4149Z" fill="white"/>
<path d="M8.58509 69.7584H0V72.71H8.58509V69.7584Z" fill="white"/>
<path d="M39 69.7584H30.4149V72.71H39V69.7584Z" fill="white"/>
<path d="M182.313 106.582C177.863 106.582 174.267 110.192 174.267 114.627C174.267 116.95 175.271 119.032 176.844 120.501L189.055 110.237C187.617 108.05 185.129 106.582 182.313 106.582Z" fill="white"/>
<path d="M176.844 120.516C178.282 121.849 180.2 122.688 182.313 122.688C186.763 122.688 190.358 119.077 190.358 114.642C190.358 113.024 189.864 111.526 189.055 110.267L176.844 120.516Z" fill="white"/>
<path d="M183.781 95H180.829V103.585H183.781V95Z" fill="white"/>
<path d="M183.781 125.415H180.829V134H183.781V125.415Z" fill="white"/>
<path d="M171.585 113.758H163V116.71H171.585V113.758Z" fill="white"/>
<path d="M202 113.758H193.415V116.71H202V113.758Z" fill="white"/>
<path d="M162.313 11.5816C157.863 11.5816 154.267 15.1925 154.267 19.6274C154.267 21.9497 155.271 24.0323 156.844 25.5006L169.055 15.2374C167.617 13.0499 165.129 11.5816 162.313 11.5816Z" fill="white"/>
<path d="M156.844 25.5156C158.282 26.849 160.2 27.688 162.313 27.688C166.763 27.688 170.358 24.0772 170.358 19.6423C170.358 18.0242 169.864 16.5259 169.055 15.2674L156.844 25.5156Z" fill="white"/>
<path d="M163.781 0H160.829V8.58509H163.781V0Z" fill="white"/>
<path d="M163.781 30.4149H160.829V39H163.781V30.4149Z" fill="white"/>
<path d="M151.585 18.7584H143V21.71H151.585V18.7584Z" fill="white"/>
<path d="M182 18.7584H173.415V21.71H182V18.7584Z" fill="white"/>
<defs>
<clipPath id="clip0">
<rect width="90" height="90" fill="white" transform="translate(59 47)"/>
</clipPath>
</defs>
</svg>
